<svg height="226" viewBox="0 0 333 226" width="333" xmlns="http://www.w3.org/2000/svg"><g fill="none"><ellipse cx="166.464" cy="187.344" fill="#e1e1e1" opacity=".355887" rx="166.464" ry="38.304"/><path d="m229.396086 149.48062c-11.532244 16.497624-52.990662 7.758841-52.990662 7.758841l-32.128832-30.055422-4.324592-4.069644 7.253782-15.402395s2.306448.634081 6.262008 1.763897c20.769572 6.02953 85.66151 26.13565 75.928296 40.004723z" fill="#efb7b9"/><path d="m153.2 109.486039c-1.392738 4.962671-5.208615 12.395084-9.001846 17.809961l-4.246154-4.093044 7.122215-15.490956s2.287262.637726 6.125785 1.774039z" fill="#000" opacity=".1"/><path d="m74.018786 54.144s-6.4309407 12.3134949-2.4782045 11.479467 2.4782045-11.479467 2.4782045-11.479467z" fill="#a8ccf0" opacity=".1"/><path d="m.85824 2.38464c.06446053-.75330387-.05001015-1.51117874-.33408-2.21184 0 .0576-.05184.1152-.06912.1728-.24768.77184.0864 1.57248.29952 2.37312.04577133-.10756633.08050927-.21949969.10368-.33408z" fill="#000" opacity=".1" transform="translate(58.736)"/><path d="m76.592 78.9663605 88.704-14.4543605v84.096l-84.28032-4.418212z" fill="#ccc"/><path d="m76.592 78.9663605 88.704-14.4543605v84.096l-84.28032-4.418212z" fill="#a2a2a2"/><path d="m165.296 64.512 106.56 7.9712395-5.89692 73.1831305-100.66308 2.94163z" fill="#777"/><path d="m165.296 64.512 106.56 7.9712395-5.89692 73.1831305-100.66308 2.94163z" fill="#777" opacity=".1"/><g fill="#ccc"><path d="m198.02259 39.168-32.72659 25.491358 106.444993 7.916642 17.395007-26.0871111z"/><path d="m44.912 51.6996066 79.948009-9.6516066 41.011991 23.1112523-88.805492 14.3287477z"/><path d="m184.88 86.2799344v114.7440656l-41.605754-4.259587-18.097984-1.841984-5.513598-.57562-18.086449-1.853496-24.984215-2.555752v-111.025561l88.805849 6.0324963z"/></g><path d="m271.856 72.576v111.783916l-33.321974 6.382724-16.205706 3.105109-37.44832 7.176251v-114.6245157z" fill="#a2a2a2"/><g fill="#e1e1e1"><path d="m44.336 102.934383 32.181067-24.022383 108.362933 7.3280863-15.952021 26.6559137z"/><path d="m44.336 102.934383 32.181067-24.022383 108.362933 7.3280863-15.952021 26.6559137z" opacity=".1"/><path d="m271.900652 72.576-87.020652 13.8388995 28.322651 25.3291005 93.213349-15.6119365z"/><path d="m271.900652 72.576-87.020652 13.8388995 28.322651 25.3291005 93.213349-15.6119365z" opacity=".1"/></g></g></svg>