<svg viewBox="0 0 284 105" fill="none" xmlns="http://www.w3.org/2000/svg" class="sc-72a3vy-3 gnwjIU"><g clip-path="url(#a)"><g filter="url(#b)"><path d="m239.436 65.962-10.199.544-1.308-17.187-65.35 3.502a7.27 7.27 0 0 0 1.271-3.222c.596-4.487-3.27-8.545-8.62-9.045l-25.321-2.366a11.66 11.66 0 0 0-1.093-.053c-2.22 0-4.321.621-6.066 1.79-2.043 1.366-3.326 3.318-3.612 5.497-.261 1.958.314 3.886 1.621 5.503l-22.04-.673-.618 1.438C93.707 48.66 88.895 47 84.459 47c-2.7 0-5.15.617-7.2 1.803l-25.62-14.39-.104-.058-.108-.05a9.67 9.67 0 0 0-4.084-.895c-3.044 0-5.855 1.385-7.342 3.618-2.25 3.392-.793 7.693 3.249 9.585l.113.052.116.044 5.333 2.031-6.648-.2-1.236 28.774 43.291 1.31.349-8.115a33.11 33.11 0 0 0 1.812.52l3.077.812-2.942 6.853 17.35.525 1.29-3.747 3.145.096.926 3.814 27.321.82.216 2.844 16.922-.904c3.641-.195 6.841-1.067 9.416-2.514l.153 2.001 35.235-1.88.839-3.84 3.139-.167 1.372 3.717 36.469-1.948-.872-11.549Z" fill="#000" fill-opacity="0.17"></path></g><path d="m271.993 70.933-1.24-19.13-13.074.81-1.677-25.636-83.042 5.179c.494-1.15.82-2.372.965-3.641.827-7.244-4.534-13.75-11.891-14.549l-32.454-3.53a13.78 13.78 0 0 0-1.504-.083c-3.056 0-5.954.996-8.357 2.869-2.817 2.192-4.596 5.334-4.991 8.845-.293 2.545.17 5.06 1.307 7.301l-27.19-.966-.58 1.575c-5.477-4.112-11.445-6.401-17.046-6.401-3.403 0-6.54.849-9.223 2.507L29.672 4.957l-.002-.002-.167-.11-.169-.09-.003-.002a11.899 11.899 0 0 0-5.686-1.448c-4.233 0-8.154 2.24-10.234 5.875v.002c-3.156 5.537-1.103 12.539 4.535 15.61l.183.097L20.632 26l-4.539-.16-1.655 44.827 57.388 2.022.435-11.765c.379.126.761.247 1.148.361l.004.002 2.972.914-3.877 10.512 24.287.856 1.653-5.59 2.553.09 1.188 5.69 34.904 1.22.283 4.33 22.635-1.408c4.192-.261 7.973-1.315 11.165-3.081l.155 2.375 46.846-2.91 1.076-5.727 2.547-.157 1.758 5.544 48.435-3.01Z" fill="#fff"></path><path d="m133.175 60.536.95-25.67-14.238-.501-1.023 27.818-8.125-28.141-18.464-.648-12.793 34.697 13.635.48 1.655-5.588 10.302.364 1.184 5.685 39.662 1.395.345-9.43-13.09-.461Zm-35.95-6.033 3.621-13.12.104.01 2.343 13.322-6.068-.212ZM55.933 42.14l-.096-.001-6 24.909-13.044-.458-4.148-25.268-.098-.007-.928 25.093-12.05-.425 1.296-35.104 19.764.695L43.79 52.62l.098.004 4.702-20.767 19.76.692-1.292 35.104-12.05-.423.924-25.09Z" fill="#F6A01A"></path><path d="m40.628 31.575-14.903-.524 15.588 5.082-.685-4.558ZM67.72 49.712l-4.949-1.716c-1.153-.497-1.698-1.67-1.213-2.628.486-.965 1.823-1.352 2.992-.865l3.315 1.233.208-5.775-.983-.436c-1.194-.476-1.752-1.665-1.247-2.657.41-.814 1.389-1.254 2.393-1.15l.114-3.17-13.035-.455a11.485 11.485 0 0 0-1.694 1.651L49.893 31.9l-1.303-.044-1.4 6.189 3.818 1.243c-.616 3.4.627 6.622 3.247 9.422l1.582-6.572.096.001-.288 7.903c2.907 2.525 6.988 4.624 11.837 6.089l.237-6.419Zm19.075-1.454-1.467 3.974 4.594 1.645 1.186-3.707-4.313-1.912Zm3.191-8.66-1.954 5.293 4.065 1.914c.026.013.049.02.071.032l1.596-4.985-3.778-2.254ZM86.838 56.36c-.073-.026-.148-.056-.224-.08l-2.464-.858-1.699 4.62 5.088 1.305 1.022-3.194c-.201-.727-.808-1.405-1.723-1.792Z" fill="#DF7A1C"></path><path d="M76.204 35.562 92.39 46.141l1.59-4.982-6.916-5.862c-8.573-7.334-18.898-9.38-24.775-3.178L26.924 9.011c-3.252-1.78-7.368-.632-9.19 2.55-1.813 3.184-.644 7.201 2.616 8.979l38.737 17.184c-2.308 8.145 4.908 15.649 15.798 18.918l12.887 3.963 1.39-4.34-19.754-8.785c-1.023-.556-1.4-1.79-.852-2.76.557-.97 1.83-1.304 2.852-.75l18.74 9.194 1.21-3.779L74.206 39.07c-1.022-.556-1.4-1.794-.853-2.764.555-.962 1.831-1.301 2.85-.744Z" fill="#B3B3B3"></path><path d="m266.124 56.968-13.075.813-1.674-25.636-14.213.885 1.814 27.784-10.948-27.216-18.445 1.149-6.797 26.454-13.807.86-.26-3.936 12.626-.782-.593-9.128-12.627.784-.243-3.74 13.666-.848-.589-9.128-27.292 1.697.55 8.42c-2.799-5.02-8.219-7.942-17.649-7.352l-15.419.957-1.43.087L142 74.152l17.696-1.103c7.719-.48 13.28-4.046 15.692-9.772l.569 8.758 24.431-1.516 13.624-.847 1.072-5.724 10.291-.641 1.756 5.546 14.715-.917 24.89-1.548-.612-9.42ZM161.167 62.72c-.8 1.464-2.086 2.372-4.375 2.511l-1.394.092-1.242-19.132 1.391-.084c2.286-.147 3.677.596 4.67 1.95 1.038 1.4 1.501 3.858 1.718 7.254.22 3.396.089 5.894-.768 7.409Zm55.5-7.453 2.268-13.402.098-.008 3.7 13.033-6.066.377Z" fill="#0096D6"></path><path d="m161.478 18.92-32.456-3.528a8.446 8.446 0 0 0-6.151 1.737c-1.754 1.366-2.86 3.323-3.106 5.494a8.034 8.034 0 0 0 1.783 6.021 8.344 8.344 0 0 0 5.621 3.017l32.455 3.532a8.438 8.438 0 0 0 6.156-1.739c1.754-1.37 2.859-3.322 3.106-5.491.514-4.493-2.808-8.542-7.408-9.044Z" fill="#EE3124"></path><path d="M159.738 34.18c4.032.442 7.653-2.4 8.104-6.333.452-3.937-2.456-7.489-6.477-7.922l-32.463-3.521c-4.029-.438-7.652 2.403-8.101 6.333-.448 3.938 2.463 7.479 6.477 7.915l32.46 3.529Z" fill="#fff"></path><path d="M159.822 33.475c3.631.397 6.906-2.146 7.309-5.706.405-3.547-2.215-6.747-5.847-7.14l-32.461-3.527c-3.63-.393-6.907 2.164-7.303 5.71-.408 3.552 2.212 6.755 5.841 7.145l32.461 3.518Z" fill="#EE3124"></path><path d="m131.907 25.018-.239 2.503 2.986.321 1.246-7.061-3.549-.384-.309 3.185-2.124-.233.411-3.172-3.534-.384-.374 7.157 2.982.325.32-2.494 2.184.237Zm6.696.752.163-1.435-2.141-.222-.163 1.42 2.141.236Zm13.426 1.46.149-1.435-2.139-.233-.171 1.433 2.161.235Zm-4.702-1.986-3.829-.416.162-1.236 5.335.581.363-1.928-8.99-.976-.508 7.139 8.292.898.271-1.326-5.267-.571.149-1.152 3.798.415.224-1.428Zm11.316 3.256c-.144.688-.897.547-1.419.492l-.645-.07.174-1.316 1.005.11c.487.051 1.002.213.885.784Zm-.426-3.455c.514.054 1.079.324 1.005.807-.114.584-.627.678-1.27.608l-1.041-.11.196-1.426 1.11.121Zm2.41-1.58-6.824-.742-.379 7.158 5.947.647c1.776.193 2.314-.584 2.519-1.238.196-.607.369-1.544-.937-1.822 1.056-.106 1.646-.674 1.791-1.792.084-.708-.175-2.007-2.117-2.21Z" fill="#fff"></path><path d="M167.011 36.053a1.076 1.076 0 0 1-.963-1.18 1.101 1.101 0 0 1 1.217-.964c.606.066 1.043.6.974 1.192-.064.58-.611 1.02-1.228.952Zm.23-1.967a.9.9 0 0 0-1.007.805c-.058.492.285.921.797.977.53.059.958-.295 1.015-.789a.89.89 0 0 0-.805-.993Zm.147 1.046.215.412-.272-.033-.202-.366-.176-.015-.041.338-.256-.026.123-1.073.486.052c.262.028.421.18.393.396a.332.332 0 0 1-.27.315Zm-.147-.492-.231-.026-.037.307.233.024c.113.01.194-.04.201-.13.016-.113-.049-.162-.166-.175Z" fill="#EE3124"></path><path d="m146.263 60.995-5.129-.179.617 9.463 4.168.147.344-9.43Z" fill="#006892"></path></g><defs><clipPath id="a"><path fill="#fff" d="M0 0h284v105H0z"></path></clipPath><filter id="b" x="15.943" y="10.41" width="247.365" height="95.637" filterUnits="userSpaceOnUse" color-interpolation-filters="sRGB"><feFlood flood-opacity="0" result="BackgroundImageFix"></feFlood><feBlend in="SourceGraphic" in2="BackgroundImageFix" result="shape"></feBlend><feGaussianBlur stdDeviation="11.5" result="effect1_foregroundBlur_7906_310433"></feGaussianBlur></filter></defs></svg>
